<svg width="16" height="16" viewBox="0 0 16 16" fill="none" xmlns="http://www.w3.org/2000/svg">
  <defs>
    <linearGradient id="fBody" x1="8" y1="1.5" x2="8" y2="14.5" gradientUnits="userSpaceOnUse">
      <stop stop-color="#FDFEFF"/>
      <stop offset="1" stop-color="#E9F3FE"/>
    </linearGradient>
    <linearGradient id="fGloss" x1="3" y1="14.5" x2="13" y2="8" gradientUnits="userSpaceOnUse">
      <stop stop-color="#A9D6FB" stop-opacity="0.55"/>
      <stop offset="1" stop-color="#A9D6FB" stop-opacity="0"/>
    </linearGradient>
  </defs>
  <path d="M4 1.5h5.19a1 1 0 0 1 .7.3l3.31 3.31a1 1 0 0 1 .3.7V12.5a2 2 0 0 1-2 2H4a2 2 0 0 1-2-2v-9a2 2 0 0 1 2-2z"
        fill="url(#fBody)" stroke="#7CBEF9" stroke-width="1" stroke-linejoin="round"/>
  <path d="M4 14.5a2 2 0 0 1-2-2v-1.2c3.6 0 8-1.6 11.5-4.3v5.5a2 2 0 0 1-2 2z" fill="url(#fGloss)"/>
  <path d="M9.75 1.75V5a1.25 1.25 0 0 0 1.25 1.25h3.25" stroke="#7CBEF9" stroke-width="1" stroke-linejoin="round" fill="none"/>
  <path d="M4.75 8h4" stroke="#CFE6FB" stroke-width="1.5" stroke-linecap="round"/>
  <path d="M4.6 12V9.4L8 12l3.4-2.6V12" stroke="#55A8F5" stroke-width="1.5"
        stroke-linecap="round" stroke-linejoin="round" fill="none"/>
</svg>
