<svg width="48" height="48" viewBox="0 0 48 48" fill="none" xmlns="http://www.w3.org/2000/svg">
  <defs>
    <linearGradient id="mdBody" x1="8" y1="1.5" x2="8" y2="14.5" gradientUnits="userSpaceOnUse">
      <stop stop-color="#FDFEFF"/>
      <stop offset="1" stop-color="#E9F3FE"/>
    </linearGradient>
    <linearGradient id="mdGloss" x1="3" y1="14.5" x2="13" y2="8" gradientUnits="userSpaceOnUse">
      <stop stop-color="#A9D6FB" stop-opacity="0.55"/>
      <stop offset="1" stop-color="#A9D6FB" stop-opacity="0"/>
    </linearGradient>
  </defs>
  <g transform="scale(3)">
    <path d="M4 1.5h5.19a1 1 0 0 1 .7.3l3.31 3.31a1 1 0 0 1 .3.7V12.5a2 2 0 0 1-2 2H4a2 2 0 0 1-2-2v-9a2 2 0 0 1 2-2z"
          fill="url(#mdBody)" stroke="#7CBEF9" stroke-width="1" stroke-linejoin="round"/>
    <path d="M4 14.5a2 2 0 0 1-2-2v-1.2c3.6 0 8-1.6 11.5-4.3v5.5a2 2 0 0 1-2 2z" fill="url(#mdGloss)"/>
    <path d="M9.19 1.5V4.81a1 1 0 0 0 1 1h3.31" stroke="#7CBEF9" stroke-width="1" stroke-linejoin="round" fill="none"/>
    <path d="M8.6 9.6h3.4M4.6 12.6h7" stroke="#CFE6FB" stroke-width="1.5" stroke-linecap="round"/>
    <path d="M5.3 8.1v3M6.8 8.1v3M4.4 9.1h3.3M4.4 10.3h3.3" stroke="#55A8F5" stroke-width="1"
          stroke-linecap="round" fill="none"/>
  </g>
</svg>
